<svg width="177" height="32" viewBox="0 0 177 32" fill="none" xmlns="http://www.w3.org/2000/svg">
<circle cx="16" cy="16" r="15" stroke="#FE6152" stroke-width="2"/>
<line x1="10" y1="22.5865" x2="22.5865" y2="10" stroke="#FE6152" stroke-width="4.2" stroke-linecap="round"/>
<line x1="9.96985" y1="10" x2="22.5563" y2="22.5865" stroke="#FE6152" stroke-width="4.2" stroke-linecap="round"/>
<path d="M43.7656 24.1562C42.5221 24.1562 41.5195 23.7689 40.7578 22.9941C40.0026 22.2194 39.625 21.1354 39.625 19.7422V11.8125C39.625 10.1458 39.9538 8.86979 40.6113 7.98438C41.2754 7.09896 42.3529 6.65625 43.8438 6.65625C44.6576 6.65625 45.3802 6.80599 46.0117 7.10547C46.6497 7.40495 47.151 7.85417 47.5156 8.45312C47.8802 9.04557 48.0625 9.79427 48.0625 10.6992V13.668H44.6445V11.1289C44.6445 10.6146 44.5794 10.2695 44.4492 10.0938C44.319 9.91146 44.1172 9.82031 43.8438 9.82031C43.5247 9.82031 43.3099 9.9375 43.1992 10.1719C43.0885 10.3997 43.0332 10.7057 43.0332 11.0898V19.6934C43.0332 20.1686 43.1016 20.5039 43.2383 20.6992C43.3815 20.8945 43.5833 20.9922 43.8438 20.9922C44.1367 20.9922 44.3418 20.8717 44.459 20.6309C44.5827 20.39 44.6445 20.0775 44.6445 19.6934V16.5977H48.1016V19.8496C48.1016 21.36 47.7207 22.457 46.959 23.1406C46.1973 23.8177 45.1328 24.1562 43.7656 24.1562ZM48.7852 24L50.4453 6.8125H56.2754L57.9062 24H54.6543L54.4102 21.2266H52.3398L52.125 24H48.7852ZM52.584 18.4824H54.1465L53.3945 9.74219H53.2383L52.584 18.4824ZM58.9609 24V6.8125H62.4961L64.0781 15.0449V6.8125H67.3984V24H64.0391L62.3203 15.4062V24H58.9609ZM72.9258 24.1562C71.6823 24.1562 70.6797 23.7689 69.918 22.9941C69.1628 22.2194 68.7852 21.1354 68.7852 19.7422V11.8125C68.7852 10.1458 69.1139 8.86979 69.7715 7.98438C70.4355 7.09896 71.513 6.65625 73.0039 6.65625C73.8177 6.65625 74.5404 6.80599 75.1719 7.10547C75.8099 7.40495 76.3112 7.85417 76.6758 8.45312C77.0404 9.04557 77.2227 9.79427 77.2227 10.6992V13.668H73.8047V11.1289C73.8047 10.6146 73.7396 10.2695 73.6094 10.0938C73.4792 9.91146 73.2773 9.82031 73.0039 9.82031C72.6849 9.82031 72.4701 9.9375 72.3594 10.1719C72.2487 10.3997 72.1934 10.7057 72.1934 11.0898V19.6934C72.1934 20.1686 72.2617 20.5039 72.3984 20.6992C72.5417 20.8945 72.7435 20.9922 73.0039 20.9922C73.2969 20.9922 73.502 20.8717 73.6191 20.6309C73.7428 20.39 73.8047 20.0775 73.8047 19.6934V16.5977H77.2617V19.8496C77.2617 21.36 76.8809 22.457 76.1191 23.1406C75.3574 23.8177 74.293 24.1562 72.9258 24.1562ZM78.4141 24V6.8125H85.2891V10.1328H81.9102V13.4824H85.1523V16.7148H81.9102V20.6504H85.5137V24H78.4141ZM86.6562 24V6.8125H90.0938V21.0703H93.6289V24H86.6562ZM124.742 24.1562C123.499 24.1562 122.496 23.7689 121.734 22.9941C120.979 22.2194 120.602 21.1354 120.602 19.7422V11.8125C120.602 10.1458 120.93 8.86979 121.588 7.98438C122.252 7.09896 123.329 6.65625 124.82 6.65625C125.634 6.65625 126.357 6.80599 126.988 7.10547C127.626 7.40495 128.128 7.85417 128.492 8.45312C128.857 9.04557 129.039 9.79427 129.039 10.6992V13.668H125.621V11.1289C125.621 10.6146 125.556 10.2695 125.426 10.0938C125.296 9.91146 125.094 9.82031 124.82 9.82031C124.501 9.82031 124.286 9.9375 124.176 10.1719C124.065 10.3997 124.01 10.7057 124.01 11.0898V19.6934C124.01 20.1686 124.078 20.5039 124.215 20.6992C124.358 20.8945 124.56 20.9922 124.82 20.9922C125.113 20.9922 125.318 20.8717 125.436 20.6309C125.559 20.39 125.621 20.0775 125.621 19.6934V16.5977H129.078V19.8496C129.078 21.36 128.697 22.457 127.936 23.1406C127.174 23.8177 126.109 24.1562 124.742 24.1562ZM129.762 24L131.422 6.8125H137.252L138.883 24H135.631L135.387 21.2266H133.316L133.102 24H129.762ZM133.561 18.4824H135.123L134.371 9.74219H134.215L133.561 18.4824ZM139.938 24V6.8125H143.473L145.055 15.0449V6.8125H148.375V24H145.016L143.297 15.4062V24H139.938ZM153.902 24.1562C152.659 24.1562 151.656 23.7689 150.895 22.9941C150.139 22.2194 149.762 21.1354 149.762 19.7422V11.8125C149.762 10.1458 150.09 8.86979 150.748 7.98438C151.412 7.09896 152.49 6.65625 153.98 6.65625C154.794 6.65625 155.517 6.80599 156.148 7.10547C156.786 7.40495 157.288 7.85417 157.652 8.45312C158.017 9.04557 158.199 9.79427 158.199 10.6992V13.668H154.781V11.1289C154.781 10.6146 154.716 10.2695 154.586 10.0938C154.456 9.91146 154.254 9.82031 153.98 9.82031C153.661 9.82031 153.447 9.9375 153.336 10.1719C153.225 10.3997 153.17 10.7057 153.17 11.0898V19.6934C153.17 20.1686 153.238 20.5039 153.375 20.6992C153.518 20.8945 153.72 20.9922 153.98 20.9922C154.273 20.9922 154.479 20.8717 154.596 20.6309C154.719 20.39 154.781 20.0775 154.781 19.6934V16.5977H158.238V19.8496C158.238 21.36 157.857 22.457 157.096 23.1406C156.334 23.8177 155.27 24.1562 153.902 24.1562ZM159.391 24V6.8125H166.266V10.1328H162.887V13.4824H166.129V16.7148H162.887V20.6504H166.49V24H159.391ZM167.633 24V6.8125H172.906C173.785 6.8125 174.449 7.01432 174.898 7.41797C175.348 7.8151 175.647 8.375 175.797 9.09766C175.953 9.8138 176.031 10.6569 176.031 11.627C176.031 12.5645 175.911 13.3132 175.67 13.873C175.436 14.4329 174.99 14.8203 174.332 15.0352C174.872 15.1458 175.25 15.416 175.465 15.8457C175.686 16.2689 175.797 16.819 175.797 17.4961V24H172.408V17.2715C172.408 16.7702 172.304 16.4609 172.096 16.3438C171.894 16.2201 171.565 16.1582 171.109 16.1582V24H167.633ZM171.129 13.1797H171.959C172.434 13.1797 172.672 12.6621 172.672 11.627C172.672 10.9564 172.62 10.5169 172.516 10.3086C172.411 10.1003 172.216 9.99609 171.93 9.99609H171.129V13.1797Z" fill="white"/>
<path d="M96.0801 24V10.1133H94.0391V6.8125H101.559V10.1133H99.5176V24H96.0801ZM102.516 24V6.8125H105.934V12.9551H107.555V6.8125H110.973V24H107.555V16.207H105.934V24H102.516ZM112.496 24V6.8125H119.371V10.1328H115.992V13.4824H119.234V16.7148H115.992V20.6504H119.596V24H112.496Z" fill="#FE6152"/>
</svg>
