<svg width="487" height="606" viewBox="0 0 487 606" fill="none" xmlns="http://www.w3.org/2000/svg">
<path d="M12 477.5H120L161.712 388.117C161.797 387.936 162.065 387.976 162.092 388.174L180.417 522.893C180.444 523.085 180.699 523.131 180.792 522.961L226.23 438.999C226.32 438.833 226.568 438.872 226.603 439.058L256.348 600.673C256.386 600.88 256.677 600.895 256.736 600.692L346.352 294.506C346.404 294.329 346.646 294.31 346.725 294.477L391.5 389.5" stroke="#FE6152" stroke-width="10" stroke-linecap="round"/>
<path d="M400.5 526L392.743 518.95C365.19 494.01 347 477.561 347 457.373C347 440.924 359.947 428 376.425 428C385.734 428 394.668 432.326 400.5 439.162C406.331 432.326 415.266 428 424.575 428C441.053 428 454 440.924 454 457.373C454 477.561 435.81 494.01 408.257 519.004L400.5 526Z" fill="#FE6152"/>
<path d="M47.2656 236.953C32.0964 236.953 21.0612 232.949 14.1602 224.941C7.25911 216.934 3.80859 204.857 3.80859 188.711V170.742H39.0625V188.809C39.0625 193.366 39.6159 197.24 40.7227 200.43C41.8945 203.555 44.4661 205.117 48.4375 205.117C52.474 205.117 55.0456 203.424 56.1523 200.039C57.2591 196.589 57.8125 190.99 57.8125 183.242V178.945C57.8125 173.021 56.8034 167.845 54.7852 163.418C52.832 158.991 48.9583 156.777 43.1641 156.777C42.4479 156.777 41.7969 156.81 41.2109 156.875C40.6901 156.875 40.2344 156.908 39.8438 156.973V126.113C45.7682 126.113 50.293 124.811 53.418 122.207C56.543 119.538 58.1055 115.111 58.1055 108.926C58.1055 99.2253 55.306 94.375 49.707 94.375C46.0612 94.375 43.5872 95.8073 42.2852 98.6719C41.0482 101.471 40.4297 105.052 40.4297 109.414V114.59H4.88281C4.81771 113.809 4.7526 112.865 4.6875 111.758C4.6875 110.651 4.6875 109.577 4.6875 108.535C4.6875 92.7799 8.36589 81.224 15.7227 73.8672C23.0794 66.5104 34.3424 62.832 49.5117 62.832C78.8086 62.832 93.457 78.0664 93.457 108.535C93.457 116.999 92.3177 123.997 90.0391 129.531C87.7604 135 83.5286 138.841 77.3438 141.055C82.2266 143.398 85.8398 146.393 88.1836 150.039C90.5273 153.685 92.0573 158.21 92.7734 163.613C93.4896 169.017 93.8477 175.56 93.8477 183.242C93.8477 200.43 90.2344 213.678 83.0078 222.988C75.8464 232.298 63.9323 236.953 47.2656 236.953Z" fill="#FE6152"/>
<path d="M117.438 141V86H132.562C136.521 86 139.5 87.1042 141.5 89.3125C143.5 91.5 144.5 94.7083 144.5 98.9375V124.688C144.5 129.896 143.583 133.917 141.75 136.75C139.938 139.583 136.75 141 132.188 141H117.438ZM128.5 131.281H130.406C132.427 131.281 133.438 130.302 133.438 128.344V99.9688C133.438 98.1354 133.188 96.9583 132.688 96.4375C132.208 95.8958 131.219 95.625 129.719 95.625H128.5V131.281ZM162.125 141.5C157.729 141.5 154.365 140.177 152.031 137.531C149.719 134.865 148.562 131.021 148.562 126V99.875C148.562 95.1667 149.708 91.5938 152 89.1562C154.312 86.7188 157.688 85.5 162.125 85.5C166.562 85.5 169.927 86.7188 172.219 89.1562C174.531 91.5938 175.688 95.1667 175.688 99.875V126C175.688 131.021 174.521 134.865 172.188 137.531C169.875 140.177 166.521 141.5 162.125 141.5ZM162.219 131.375C163.885 131.375 164.719 129.76 164.719 126.531V99.6875C164.719 96.9792 163.906 95.625 162.281 95.625C160.448 95.625 159.531 97.0104 159.531 99.7812V126.594C159.531 128.302 159.74 129.531 160.156 130.281C160.573 131.01 161.26 131.375 162.219 131.375ZM180.125 141V86H195.031C199.031 86 201.938 86.9792 203.75 88.9375C205.583 90.875 206.5 94.0833 206.5 98.5625V100.969C206.5 103.552 206.031 105.646 205.094 107.25C204.177 108.854 202.771 109.906 200.875 110.406C203.354 111.031 205.01 112.5 205.844 114.812C206.698 117.104 207.125 119.906 207.125 123.219C207.125 126.781 206.792 129.896 206.125 132.562C205.458 135.229 204.25 137.302 202.5 138.781C200.75 140.26 198.26 141 195.031 141H180.125ZM190.875 106.719H193.125C194.146 106.719 194.802 106.323 195.094 105.531C195.385 104.74 195.531 103.792 195.531 102.688V97.1562C195.531 95.3854 194.75 94.5 193.188 94.5H190.875V106.719ZM191.969 131.312C194.823 131.312 196.25 129.958 196.25 127.25V120.375C196.25 118.812 196.01 117.583 195.531 116.688C195.073 115.771 194.198 115.312 192.906 115.312H190.875V131.25C191.333 131.292 191.698 131.312 191.969 131.312ZM210.75 141V86H227.625C230.438 86 232.562 86.6458 234 87.9375C235.438 89.2083 236.396 91 236.875 93.3125C237.375 95.6042 237.625 98.3021 237.625 101.406C237.625 104.406 237.24 106.802 236.469 108.594C235.719 110.385 234.292 111.625 232.188 112.312C233.917 112.667 235.125 113.531 235.812 114.906C236.521 116.26 236.875 118.021 236.875 120.188V141H226.031V119.469C226.031 117.865 225.698 116.875 225.031 116.5C224.385 116.104 223.333 115.906 221.875 115.906V141H210.75ZM221.938 106.375H224.594C226.115 106.375 226.875 104.719 226.875 101.406C226.875 99.2604 226.708 97.8542 226.375 97.1875C226.042 96.5208 225.417 96.1875 224.5 96.1875H221.938V106.375ZM241.25 141V86H263.25V96.625H252.438V107.344H262.812V117.688H252.438V130.281H263.969V141H241.25ZM281.188 141V131L293.781 96.125H282.406V86H305.375V95.625L292.562 130.875H304.844V141H281.188ZM308.875 141V86H324C327.958 86 330.938 87.1042 332.938 89.3125C334.938 91.5 335.938 94.7083 335.938 98.9375V124.688C335.938 129.896 335.021 133.917 333.188 136.75C331.375 139.583 328.188 141 323.625 141H308.875ZM319.938 131.281H321.844C323.865 131.281 324.875 130.302 324.875 128.344V99.9688C324.875 98.1354 324.625 96.9583 324.125 96.4375C323.646 95.8958 322.656 95.625 321.156 95.625H319.938V131.281ZM340.438 141V86H357.312C360.125 86 362.25 86.6458 363.688 87.9375C365.125 89.2083 366.083 91 366.562 93.3125C367.062 95.6042 367.312 98.3021 367.312 101.406C367.312 104.406 366.927 106.802 366.156 108.594C365.406 110.385 363.979 111.625 361.875 112.312C363.604 112.667 364.812 113.531 365.5 114.906C366.208 116.26 366.562 118.021 366.562 120.188V141H355.719V119.469C355.719 117.865 355.385 116.875 354.719 116.5C354.073 116.104 353.021 115.906 351.562 115.906V141H340.438ZM351.625 106.375H354.281C355.802 106.375 356.562 104.719 356.562 101.406C356.562 99.2604 356.396 97.8542 356.062 97.1875C355.729 96.5208 355.104 96.1875 354.188 96.1875H351.625V106.375ZM384.062 141.5C379.667 141.5 376.302 140.177 373.969 137.531C371.656 134.865 370.5 131.021 370.5 126V99.875C370.5 95.1667 371.646 91.5938 373.938 89.1562C376.25 86.7188 379.625 85.5 384.062 85.5C388.5 85.5 391.865 86.7188 394.156 89.1562C396.469 91.5938 397.625 95.1667 397.625 99.875V126C397.625 131.021 396.458 134.865 394.125 137.531C391.812 140.177 388.458 141.5 384.062 141.5ZM384.156 131.375C385.823 131.375 386.656 129.76 386.656 126.531V99.6875C386.656 96.9792 385.844 95.625 384.219 95.625C382.385 95.625 381.469 97.0104 381.469 99.7812V126.594C381.469 128.302 381.677 129.531 382.094 130.281C382.51 131.01 383.198 131.375 384.156 131.375ZM406.375 141L400.469 86H411.219L414.25 120.719L417.344 86H427.594L430.531 120.719L433.469 86H444.344L438.344 141H425.156L422.406 114.531L419.781 141H406.375ZM447.125 141V86H457.75V141H447.125ZM462.125 141V86H484.125V96.625H473.312V107.344H483.688V117.688H473.312V130.281H484.844V141H462.125Z" fill="#FE6152"/>
<path d="M123.938 225V170H134.562V225H123.938ZM166.125 225.5C163.646 225.5 161.385 225.021 159.344 224.062C157.302 223.104 155.677 221.688 154.469 219.812C153.281 217.917 152.688 215.594 152.688 212.844V199.062H163.562V212.188C163.562 213.146 163.75 213.917 164.125 214.5C164.521 215.083 165.146 215.375 166 215.375C167.646 215.375 168.469 214.365 168.469 212.344V170H179.562V211.25C179.562 214.167 178.99 216.698 177.844 218.844C176.698 220.969 175.115 222.615 173.094 223.781C171.073 224.927 168.75 225.5 166.125 225.5ZM182.312 225L187.625 170H206.281L211.5 225H201.094L200.312 216.125H193.688L193 225H182.312ZM194.469 207.344H199.469L197.062 179.375H196.562L194.469 207.344ZM214.875 225V170H225.75V192.031L230.875 170H241.938L235.781 195.188L243.219 225H231.812L225.812 198.375V225H214.875ZM258.25 225.5C253.854 225.5 250.49 224.177 248.156 221.531C245.844 218.865 244.688 215.021 244.688 210V183.875C244.688 179.167 245.833 175.594 248.125 173.156C250.438 170.719 253.812 169.5 258.25 169.5C262.688 169.5 266.052 170.719 268.344 173.156C270.656 175.594 271.812 179.167 271.812 183.875V210C271.812 215.021 270.646 218.865 268.312 221.531C266 224.177 262.646 225.5 258.25 225.5ZM258.344 215.375C260.01 215.375 260.844 213.76 260.844 210.531V183.688C260.844 180.979 260.031 179.625 258.406 179.625C256.573 179.625 255.656 181.01 255.656 183.781V210.594C255.656 212.302 255.865 213.531 256.281 214.281C256.698 215.01 257.385 215.375 258.344 215.375ZM289.312 225.5C284.292 225.5 280.667 224.25 278.438 221.75C276.229 219.25 275.125 215.271 275.125 209.812V204.438H286V211.312C286 212.583 286.188 213.583 286.562 214.312C286.958 215.021 287.635 215.375 288.594 215.375C289.594 215.375 290.281 215.083 290.656 214.5C291.052 213.917 291.25 212.958 291.25 211.625C291.25 209.938 291.083 208.531 290.75 207.406C290.417 206.26 289.833 205.177 289 204.156C288.188 203.115 287.052 201.906 285.594 200.531L280.656 195.844C276.969 192.365 275.125 188.385 275.125 183.906C275.125 179.219 276.208 175.646 278.375 173.188C280.562 170.729 283.719 169.5 287.844 169.5C292.885 169.5 296.458 170.844 298.562 173.531C300.688 176.219 301.75 180.302 301.75 185.781H290.562V182C290.562 181.25 290.344 180.667 289.906 180.25C289.49 179.833 288.917 179.625 288.188 179.625C287.312 179.625 286.667 179.875 286.25 180.375C285.854 180.854 285.656 181.479 285.656 182.25C285.656 183.021 285.865 183.854 286.281 184.75C286.698 185.646 287.521 186.677 288.75 187.844L295.094 193.938C296.365 195.146 297.531 196.427 298.594 197.781C299.656 199.115 300.51 200.677 301.156 202.469C301.802 204.24 302.125 206.406 302.125 208.969C302.125 214.135 301.167 218.188 299.25 221.125C297.354 224.042 294.042 225.5 289.312 225.5ZM281 168.344V161.375L295.844 154.562V165.406L281 168.344ZM318.625 225.5C314.646 225.5 311.438 224.26 309 221.781C306.583 219.302 305.375 215.833 305.375 211.375V186C305.375 180.667 306.427 176.583 308.531 173.75C310.656 170.917 314.104 169.5 318.875 169.5C321.479 169.5 323.792 169.979 325.812 170.938C327.854 171.896 329.458 173.333 330.625 175.25C331.792 177.146 332.375 179.542 332.375 182.438V191.938H321.438V183.812C321.438 182.167 321.229 181.062 320.812 180.5C320.396 179.917 319.75 179.625 318.875 179.625C317.854 179.625 317.167 180 316.812 180.75C316.458 181.479 316.281 182.458 316.281 183.688V211.219C316.281 212.74 316.5 213.812 316.938 214.438C317.396 215.062 318.042 215.375 318.875 215.375C319.812 215.375 320.469 214.99 320.844 214.219C321.24 213.448 321.438 212.448 321.438 211.219V201.312H332.5V211.719C332.5 216.552 331.281 220.062 328.844 222.25C326.406 224.417 323 225.5 318.625 225.5ZM311.438 168.344V161.375L326.281 154.562V165.406L311.438 168.344ZM349.75 225V215L362.344 180.125H350.969V170H373.938V179.625L361.125 214.875H373.406V225H349.75ZM356.875 167.125V157.812H368.062V167.125H356.875ZM384.094 225V206.906L375.312 170H386.219L389.281 188.625L392.344 170H403.219L394.469 206.906V225H384.094ZM418.812 225.5C414.833 225.5 411.625 224.26 409.188 221.781C406.771 219.302 405.562 215.833 405.562 211.375V186C405.562 180.667 406.615 176.583 408.719 173.75C410.844 170.917 414.292 169.5 419.062 169.5C421.667 169.5 423.979 169.979 426 170.938C428.042 171.896 429.646 173.333 430.812 175.25C431.979 177.146 432.562 179.542 432.562 182.438V191.938H421.625V183.812C421.625 182.167 421.417 181.062 421 180.5C420.583 179.917 419.938 179.625 419.062 179.625C418.042 179.625 417.354 180 417 180.75C416.646 181.479 416.469 182.458 416.469 183.688V211.219C416.469 212.74 416.688 213.812 417.125 214.438C417.583 215.062 418.229 215.375 419.062 215.375C420 215.375 420.656 214.99 421.031 214.219C421.427 213.448 421.625 212.448 421.625 211.219V201.312H432.688V211.719C432.688 216.552 431.469 220.062 429.031 222.25C426.594 224.417 423.188 225.5 418.812 225.5ZM435.875 225V170H446.5V225H435.875ZM449.375 225L454.688 170H473.344L478.562 225H468.156L467.375 216.125H460.75L460.062 225H449.375ZM461.531 207.344H466.531L464.125 179.375H463.625L461.531 207.344Z" fill="#FE6152"/>
</svg>
