<svg width="153" height="81" viewBox="0 0 153 81" fill="none" xmlns="http://www.w3.org/2000/svg">
<path d="M152.35 0H0V80.3568H152.35V0Z" fill="#E6E6E6"/>
<path d="M4.43738 75.9132H147.913V4.4437H4.43738V75.9132Z" fill="white"/>
<path d="M66.5608 14.8123H15.5309V65.9148H66.5608V14.8123Z" fill="#3F3D56"/>
<path d="M54.358 38.1417C55.1749 38.1417 55.8371 37.4786 55.8371 36.6605C55.8371 35.8424 55.1749 35.1793 54.358 35.1793C53.5411 35.1793 52.8789 35.8424 52.8789 36.6605C52.8789 37.4786 53.5411 38.1417 54.358 38.1417Z" fill="#FE6152"/>
<path d="M48.8113 32.9574C49.6282 32.9574 50.2904 32.2943 50.2904 31.4762C50.2904 30.6581 49.6282 29.995 48.8113 29.995C47.9944 29.995 47.3322 30.6581 47.3322 31.4762C47.3322 32.2943 47.9944 32.9574 48.8113 32.9574Z" fill="#FE6152"/>
<path d="M48.0717 36.6605C47.5274 36.6606 46.9939 36.812 46.5305 37.0978C46.1223 36.4831 45.6426 35.9193 45.1014 35.4182C45.1077 35.3391 45.1134 35.2599 45.1134 35.1793C45.1139 34.598 44.9434 34.0295 44.6233 33.5446C44.3032 33.0597 43.8477 32.6799 43.3135 32.4526C42.7793 32.2253 42.1901 32.1605 41.6194 32.2662C41.0486 32.372 40.5216 32.6437 40.1041 33.0474C39.3119 32.9349 38.5083 32.9278 37.7143 33.0266C37.7148 33.0033 37.7178 32.9808 37.7178 32.9574C37.7184 32.4616 37.5947 31.9735 37.3581 31.5379C37.1215 31.1023 36.7794 30.7332 36.3633 30.4644C35.9473 30.1956 35.4705 30.0356 34.9766 29.9992C34.4828 29.9628 33.9878 30.0512 33.5369 30.2561C33.086 30.461 32.6937 30.776 32.3959 31.1722C32.0982 31.5684 31.9045 32.0331 31.8326 32.5237C31.7607 33.0143 31.813 33.5151 31.9846 33.9803C32.1562 34.4454 32.4416 34.86 32.8147 35.186C32.3195 35.6108 31.8702 36.0866 31.4745 36.6056C31.1093 36.3013 30.6764 36.0896 30.2122 35.9883C29.7481 35.887 29.2664 35.8991 28.808 36.0236C28.3495 36.1482 27.9277 36.3815 27.5783 36.7038C27.2289 37.026 26.9621 37.4279 26.8006 37.8752C26.6391 38.3226 26.5875 38.8023 26.6502 39.2739C26.713 39.7454 26.8882 40.1949 27.1611 40.5843C27.434 40.9736 27.7965 41.2915 28.218 41.5109C28.6395 41.7303 29.1075 41.8448 29.5826 41.8448L29.5919 41.8443C29.5871 41.9675 29.5826 42.0908 29.5826 42.2151C29.5827 42.9605 29.6725 43.7031 29.8502 44.427C28.971 44.7583 28.1903 45.3078 27.5813 46.0241C26.9723 46.7403 26.555 47.5998 26.3686 48.5218C26.1822 49.4438 26.2328 50.3981 26.5156 51.2951C26.7983 52.1922 27.3041 53.0026 27.9854 53.6503C28.6666 54.298 29.501 54.7617 30.4103 54.998C31.3196 55.2342 32.2738 55.2352 33.1836 55.001C34.0934 54.7667 34.9288 54.3048 35.6115 53.6586C36.2941 53.0124 36.8016 52.2031 37.0864 51.3066C39.1441 51.7027 41.2752 51.3861 43.1295 50.4089C43.3188 50.8553 43.6147 51.2483 43.9911 51.5535C44.3676 51.8586 44.813 52.0666 45.2885 52.1591C45.7639 52.2516 46.2547 52.2258 46.7178 52.0839C47.181 51.9421 47.6023 51.6886 47.9447 51.3457C48.2872 51.0027 48.5403 50.5808 48.6819 50.117C48.8236 49.6532 48.8493 49.1617 48.757 48.6856C48.6646 48.2095 48.4569 47.7634 48.1522 47.3865C47.8475 47.0095 47.455 46.7132 47.0093 46.5236C47.6499 45.3061 48.0098 43.9602 48.0623 42.585L48.0717 42.5854C48.8563 42.5854 49.6087 42.2733 50.1635 41.7178C50.7183 41.1622 51.03 40.4087 51.03 39.623C51.03 38.8373 50.7183 38.0838 50.1635 37.5282C49.6087 36.9726 48.8563 36.6605 48.0717 36.6605Z" fill="#FE6152"/>
<path d="M47.3321 13.7014H32.5408V15.9232H47.3321V13.7014Z" fill="#E6E6E6"/>
<path d="M131.643 14.8123H80.6125V65.9148H131.643V14.8123Z" fill="#3F3D56"/>
<path d="M115.816 49.4732C116.183 49.4732 116.481 49.1747 116.481 48.8066C116.481 48.4385 116.183 48.14 115.816 48.14C115.448 48.14 115.15 48.4385 115.15 48.8066C115.15 49.1747 115.448 49.4732 115.816 49.4732Z" fill="#FE6152"/>
<path d="M113.32 47.1402C113.687 47.1402 113.985 46.8418 113.985 46.4737C113.985 46.1055 113.687 45.8071 113.32 45.8071C112.952 45.8071 112.654 46.1055 112.654 46.4737C112.654 46.8418 112.952 47.1402 113.32 47.1402Z" fill="#FE6152"/>
<path d="M112.987 48.8066C112.742 48.8066 112.502 48.8748 112.293 49.0034C112.11 48.7268 111.894 48.4731 111.65 48.2476C111.653 48.212 111.656 48.1764 111.656 48.14C111.656 47.8785 111.579 47.6226 111.435 47.4045C111.291 47.1863 111.086 47.0154 110.846 46.9131C110.605 46.8108 110.34 46.7816 110.083 46.8292C109.827 46.8768 109.589 46.999 109.402 47.1807C109.045 47.1301 108.683 47.1269 108.326 47.1713C108.326 47.1609 108.328 47.1507 108.328 47.1402C108.328 46.9171 108.272 46.6974 108.166 46.5014C108.059 46.3054 107.905 46.1393 107.718 46.0184C107.531 45.8974 107.316 45.8254 107.094 45.809C106.872 45.7927 106.649 45.8324 106.446 45.9246C106.243 46.0169 106.067 46.1586 105.933 46.3369C105.799 46.5152 105.712 46.7243 105.679 46.9451C105.647 47.1658 105.671 47.3912 105.748 47.6005C105.825 47.8098 105.953 47.9964 106.121 48.1431C105.899 48.3342 105.696 48.5484 105.518 48.7819C105.354 48.645 105.159 48.5497 104.95 48.5041C104.741 48.4585 104.525 48.464 104.318 48.52C104.112 48.5761 103.922 48.6811 103.765 48.8261C103.608 48.9711 103.488 49.1519 103.415 49.3532C103.342 49.5545 103.319 49.7704 103.347 49.9826C103.376 50.1948 103.454 50.3971 103.577 50.5723C103.7 50.7475 103.863 50.8906 104.053 50.9893C104.243 51.088 104.453 51.1396 104.667 51.1395L104.671 51.1393C104.669 51.1948 104.667 51.2502 104.667 51.3062C104.667 51.6416 104.707 51.9758 104.787 52.3015C104.392 52.4506 104.04 52.6979 103.766 53.0202C103.492 53.3425 103.304 53.7293 103.221 54.1442C103.137 54.5591 103.159 54.9885 103.287 55.3922C103.414 55.7959 103.642 56.1605 103.948 56.452C104.255 56.7435 104.63 56.9521 105.039 57.0585C105.449 57.1648 105.878 57.1652 106.287 57.0598C106.697 56.9544 107.073 56.7465 107.38 56.4557C107.687 56.1649 107.915 55.8008 108.044 55.3974C108.97 55.5756 109.929 55.4331 110.763 54.9934C110.848 55.1943 110.981 55.3711 111.151 55.5084C111.32 55.6458 111.521 55.7393 111.735 55.781C111.948 55.8226 112.169 55.811 112.378 55.7472C112.586 55.6833 112.776 55.5693 112.93 55.4149C113.084 55.2606 113.198 55.0708 113.262 54.8621C113.325 54.6533 113.337 54.4322 113.295 54.2179C113.254 54.0037 113.16 53.8029 113.023 53.6333C112.886 53.4637 112.71 53.3303 112.509 53.245C112.797 52.6971 112.959 52.0915 112.983 51.4726L112.987 51.4728C113.34 51.4728 113.679 51.3324 113.928 51.0824C114.178 50.8324 114.318 50.4933 114.318 50.1397C114.318 49.7862 114.178 49.4471 113.928 49.1971C113.679 48.9471 113.34 48.8066 112.987 48.8066Z" fill="#FE6152"/>
<path d="M121.038 36.8241C121.405 36.8241 121.703 36.5256 121.703 36.1575C121.703 35.7894 121.405 35.491 121.038 35.491C120.67 35.491 120.372 35.7894 120.372 36.1575C120.372 36.5256 120.67 36.8241 121.038 36.8241Z" fill="#FE6152"/>
<path d="M122.604 33.7857C122.971 33.7857 123.269 33.4873 123.269 33.1191C123.269 32.751 122.971 32.4526 122.604 32.4526C122.236 32.4526 121.938 32.751 121.938 33.1191C121.938 33.4873 122.236 33.7857 122.604 33.7857Z" fill="#FE6152"/>
<path d="M120.271 33.4307C120.205 33.1947 120.074 32.9817 119.894 32.8155C120.11 32.5635 120.295 32.2866 120.446 31.9908C120.481 31.9839 120.516 31.9767 120.551 31.9668C120.802 31.8961 121.027 31.7528 121.198 31.5548C121.369 31.3569 121.477 31.1129 121.511 30.8535C121.544 30.594 121.5 30.3305 121.385 30.0959C121.269 29.8612 121.087 29.6658 120.862 29.5339C120.814 29.1765 120.719 28.8271 120.579 28.4947C120.589 28.4921 120.6 28.4907 120.61 28.4878C120.824 28.4276 121.02 28.3144 121.18 28.1586C121.339 28.0029 121.457 27.8095 121.523 27.5962C121.588 27.3829 121.599 27.1566 121.555 26.938C121.51 26.7193 121.412 26.5154 121.268 26.3448C121.124 26.1742 120.94 26.0424 120.733 25.9616C120.525 25.8808 120.3 25.8534 120.079 25.8821C119.858 25.9108 119.648 25.9945 119.468 26.1257C119.288 26.2569 119.143 26.4313 119.048 26.6329C118.804 26.4699 118.543 26.3331 118.27 26.2247C118.357 26.0292 118.396 25.8155 118.383 25.6019C118.37 25.3882 118.306 25.1807 118.197 24.9971C118.087 24.8134 117.934 24.6589 117.752 24.5466C117.57 24.4344 117.364 24.3677 117.151 24.3522C116.938 24.3367 116.724 24.3728 116.528 24.4576C116.331 24.5423 116.158 24.6732 116.023 24.839C115.888 25.0049 115.795 25.2009 115.751 25.4105C115.708 25.6201 115.715 25.8371 115.773 26.0431L115.775 26.0472C115.721 26.0601 115.667 26.0732 115.613 26.0883C115.291 26.1793 114.98 26.3088 114.689 26.4742C114.438 26.1332 114.106 25.8616 113.721 25.6848C113.337 25.508 112.915 25.4319 112.493 25.4635C112.072 25.4951 111.665 25.6334 111.312 25.8655C110.958 26.0976 110.669 26.4159 110.472 26.7904C110.275 27.1649 110.176 27.5834 110.185 28.0066C110.194 28.4299 110.31 28.8439 110.522 29.21C110.734 29.576 111.036 29.8821 111.399 30.0993C111.762 30.3166 112.174 30.4381 112.596 30.4522C112.676 31.3931 113.073 32.2789 113.721 32.964C113.551 33.1006 113.418 33.2769 113.331 33.4774C113.245 33.6779 113.21 33.8965 113.228 34.114C113.246 34.3315 113.317 34.5412 113.435 34.7248C113.552 34.9084 113.714 35.0603 113.904 35.167C114.094 35.2737 114.307 35.332 114.525 35.3369C114.743 35.3417 114.959 35.293 115.153 35.1948C115.348 35.0967 115.516 34.9522 115.641 34.774C115.767 34.5959 115.848 34.3895 115.875 34.173C116.48 34.3024 117.106 34.2943 117.707 34.1493L117.708 34.1534C117.756 34.3221 117.836 34.4797 117.944 34.6174C118.052 34.755 118.186 34.87 118.339 34.9557C118.491 35.0414 118.659 35.0961 118.833 35.1168C119.006 35.1375 119.182 35.1237 119.351 35.0762C119.519 35.0287 119.676 34.9485 119.814 34.8401C119.951 34.7317 120.066 34.5972 120.151 34.4444C120.237 34.2916 120.291 34.1234 120.312 33.9495C120.332 33.7755 120.319 33.5993 120.271 33.4307Z" fill="#FE6152"/>
<path d="M95.2579 27.7662C95.6255 27.7662 95.9235 27.4678 95.9235 27.0997C95.9235 26.7316 95.6255 26.4331 95.2579 26.4331C94.8903 26.4331 94.5923 26.7316 94.5923 27.0997C94.5923 27.4678 94.8903 27.7662 95.2579 27.7662Z" fill="#FE6152"/>
<path d="M91.8545 28.0393C92.2221 28.0393 92.5201 27.7409 92.5201 27.3728C92.5201 27.0046 92.2221 26.7062 91.8545 26.7062C91.4869 26.7062 91.1889 27.0046 91.1889 27.3728C91.1889 27.7409 91.4869 28.0393 91.8545 28.0393Z" fill="#FE6152"/>
<path d="M93.3506 29.1918C93.1855 29.373 93.0738 29.5965 93.0281 29.8374C92.7003 29.7868 92.3676 29.7753 92.0371 29.8034C92.0128 29.7773 91.9882 29.7514 91.9615 29.7269C91.7687 29.5504 91.5283 29.4347 91.2703 29.3941C91.0123 29.3535 90.748 29.3899 90.5105 29.4987C90.273 29.6075 90.0727 29.7839 89.9346 30.006C89.7966 30.228 89.7268 30.4858 89.7341 30.7473C89.4564 30.9768 89.2103 31.2421 89.0021 31.5363C88.9946 31.5291 88.988 31.5212 88.9802 31.5141C88.8159 31.3635 88.6164 31.2566 88.4 31.2032C88.1837 31.1498 87.9574 31.1516 87.742 31.2085C87.5265 31.2654 87.3288 31.3756 87.1669 31.5289C87.005 31.6822 86.8841 31.8737 86.8153 32.086C86.7465 32.2982 86.732 32.5244 86.7731 32.7437C86.8143 32.963 86.9097 33.1684 87.0507 33.3412C87.1917 33.514 87.3738 33.6485 87.5802 33.7325C87.7866 33.8166 88.0108 33.8473 88.2322 33.8221C88.2229 34.1158 88.2446 34.4097 88.2967 34.6988C88.0849 34.728 87.8833 34.8079 87.7089 34.9316C87.5344 35.0554 87.3923 35.2193 87.2945 35.4097C87.1968 35.6001 87.1462 35.8112 87.1472 36.0253C87.1481 36.2394 87.2005 36.45 87.3 36.6395C87.3994 36.829 87.543 36.9917 87.7185 37.1139C87.894 37.2361 88.0964 37.3142 88.3084 37.3415C88.5204 37.3688 88.7359 37.3446 88.9366 37.2709C89.1372 37.1972 89.3173 37.0762 89.4614 36.9181L89.4641 36.9148C89.5035 36.9538 89.543 36.9927 89.5843 37.0304C89.8317 37.2565 90.1054 37.4519 90.3995 37.6124C90.2427 38.0056 90.1882 38.4321 90.2411 38.8521C90.2941 39.2721 90.4527 39.6717 90.7021 40.0135C90.9515 40.3553 91.2836 40.628 91.6671 40.806C92.0506 40.9841 92.4729 41.0617 92.8946 41.0314C93.3162 41.0012 93.7233 40.8642 94.0776 40.6333C94.4318 40.4024 94.7217 40.0851 94.92 39.7112C95.1183 39.3374 95.2184 38.9192 95.2111 38.4959C95.2038 38.0727 95.0892 37.6582 94.8781 37.2915C95.6339 36.7268 96.1754 35.9215 96.4137 35.0079C96.6193 35.0803 96.8395 35.1011 97.0549 35.0684C97.2704 35.0357 97.4746 34.9506 97.6495 34.8204C97.8245 34.6903 97.9648 34.5191 98.0583 34.3219C98.1517 34.1247 98.1954 33.9076 98.1855 33.6896C98.1756 33.4716 98.1124 33.2593 98.0014 33.0715C97.8905 32.8836 97.7352 32.7259 97.5492 32.6122C97.3632 32.4985 97.1521 32.4323 96.9346 32.4193C96.717 32.4063 96.4996 32.4471 96.3014 32.5379C96.0917 31.9553 95.7543 31.4272 95.3139 30.9924L95.3168 30.9895C95.435 30.8602 95.5266 30.7089 95.5863 30.5442C95.646 30.3795 95.6727 30.2046 95.6649 30.0296C95.657 29.8545 95.6148 29.6827 95.5406 29.5241C95.4664 29.3654 95.3618 29.2229 95.2325 29.1047C95.1033 28.9866 94.9521 28.8951 94.7875 28.8355C94.623 28.776 94.4483 28.7495 94.2735 28.7576C94.0987 28.7656 93.9273 28.8082 93.7689 28.8827C93.6105 28.9572 93.4684 29.0622 93.3506 29.1918Z" fill="#FE6152"/>
<path d="M112.414 13.7014H97.6226V15.9232H112.414V13.7014Z" fill="#E6E6E6"/>
</svg>
